<?xml version="1.0" encoding="UTF-8"?><svg xmlns="http://www.w3.org/2000/svg" viewBox="0 0 100 65"><g id="b"><path d="M63,39.53c.23,2.03,5.91,3.89,5.91,3.89-5.14,3.66-11.33.45-11.33.45-.52-.27-.91-.44-1.19-.54-2.34-4.28-7.18-10.89-13.79-18.43.25.36,10.68,13.47,16.66,25.89.09.39.35,1.12.36,1.16,0,0-1.38.94-1.38.94-.31-3.15-3.55-7.69-3.55-7.69.47,3.35-4.4,7.16-4.4,7.16-.16-1.87-2.11-3.81-2.11-3.81-1.4,2.49-10.66,4.32-10.66,4.32,0,0,.7-1.59,1.09-3.15.39-1.56-9.66-1.64-9.66-1.64.63-5.22-4.6-8.17-4.6-8.17,4.36-.23,7.4-6.15,7.4-6.15.77.7,6.54,1.48,6.54,1.48,4.12.55,1.87-2.96,1.87-2.96-6.62-3.27-8.95-9.34-8.95-9.34,7.25-.54,5.06-6,5.06-6,1.71,1.4,1.01-5.14,1.01-5.14l.62.78c.62.86,8.09,4.83,9.11,5.22,1.01.39,1.17-2.57,1.17-2.57l.82.55c.82.54,2.84,8.1,3.47,10.28.63,2.18,2.1,0,2.1,0-.39-3.19,2.33-9.19,2.33-9.19,2.89,3.11,8.89-6.06,8.89-6.06.77,8.58,3.19,7.15,3.19,7.15-3.35,8.65-.77,9.42-.77,9.42,2.02,1.63,5.85,1.24,5.85,1.24-.45,4.36-11.06,10.9-11.06,10.9Z" fill="#030104"/></g><g id="c"><path d="M50,65c-17.92,0-32.5-14.58-32.5-32.5S32.08,0,50,0s32.5,14.58,32.5,32.5-14.58,32.5-32.5,32.5ZM50,5c-15.16,0-27.5,12.34-27.5,27.5s12.34,27.5,27.5,27.5,27.5-12.34,27.5-27.5-12.34-27.5-27.5-27.5Z"/></g></svg>