<?xml version="1.0" encoding="UTF-8"?><svg id="c" xmlns="http://www.w3.org/2000/svg" viewBox="0 0 100 65"><path d="M56.82,26.54c.07.07.16.1.25.1.04,0,.09,0,.13-.03l3.14-1.26c1.12.58,2.45.92,3.88.92,3.95,0,7.16-2.56,7.16-5.72s-3.2-5.72-7.16-5.72-7.16,2.56-7.16,5.72c0,.96.32,1.85.85,2.65l-1.18,2.95c-.05.13-.02.28.08.39Z"/><path d="M43.68,31.08c0,3.51,2.85,6.36,6.36,6.36s6.36-2.85,6.36-6.36-2.85-6.36-6.36-6.36-6.36,2.85-6.36,6.36Z"/><path d="M64.57,29.95c-3.01,0-5.45,2.44-5.45,5.45s2.44,5.45,5.45,5.45,5.45-2.44,5.45-5.45-2.44-5.45-5.45-5.45Z"/><path d="M30.05,35.4c0,3.01,2.44,5.45,5.45,5.45s5.45-2.44,5.45-5.45-2.44-5.45-5.45-5.45-5.45,2.44-5.45,5.45Z"/><path d="M50.03,39.77c-5.12.17-12.57,6.39-12.72,17.88,0,1.98.81,3.58,1.82,3.58h21.8c1.63.05,2.09-3.39,1.82-5.92-1.11-10.22-7.69-15.4-12.72-15.54Z"/><path d="M50,65c-17.92,0-32.5-14.58-32.5-32.5S32.08,0,50,0s32.5,14.58,32.5,32.5-14.58,32.5-32.5,32.5ZM50,5c-15.16,0-27.5,12.34-27.5,27.5s12.34,27.5,27.5,27.5,27.5-12.34,27.5-27.5-12.34-27.5-27.5-27.5Z"/><path d="M31.8,45.5c-.92.71-2.21,2.28-3.26,4.17,1.91,2.38,4.2,4.43,6.78,6.07.14-5.18,1.59-9.28,3.65-12.36-2.44-.58-4.96.14-7.16,2.13Z"/><path d="M71.61,49.48c-2.72-4.71-6.61-7.04-10.36-6.11,1.73,2.61,3.01,5.91,3.48,9.86.09.72.13,1.55.1,2.41,2.59-1.66,4.88-3.75,6.78-6.16Z"/></svg>