<?xml version="1.0" encoding="UTF-8"?><svg id="c" xmlns="http://www.w3.org/2000/svg" viewBox="0 0 100 65"><path d="M50,24.07c-1.61-2.02-4.11-3.29-6.9-3.23-4.59.1-8.32,3.88-8.37,8.48-.02,2.35.9,4.48,2.41,6.04l11.68,10.49c.67.6,1.69.6,2.36,0l11.69-10.49c1.56-1.62,2.49-3.85,2.39-6.3-.18-4.4-3.74-7.99-8.13-8.2-2.88-.14-5.47,1.14-7.12,3.21ZM59.37,24.45c1.22.69,2.24,1.83,2.76,3.18.14.33.23.68.32,1.04.05.36.13.71.13,1.07.01.36,0,.71-.05,1.07-.05.35-.12.7-.23,1.04-.43,1.34-1.33,2.51-2.52,3.09.53-1.2.83-2.32.87-3.41.03-.54,0-1.08-.1-1.6-.08-.52-.21-1.02-.41-1.5-.38-.96-.98-1.84-1.76-2.61-.39-.38-.83-.73-1.32-1.05-.5-.31-1.04-.58-1.64-.85.63-.19,1.31-.22,1.99-.14.68.1,1.34.34,1.96.67Z"/><path d="M50.11,49.48c-.79,0-1.43.64-1.43,1.43v5.17c0,.79.64,1.43,1.43,1.43s1.43-.64,1.43-1.43v-5.17c0-.79-.64-1.43-1.43-1.43Z"/><path d="M48.46,8.93v5.17c0,.79.64,1.43,1.43,1.43s1.43-.64,1.43-1.43v-5.17c0-.79-.64-1.43-1.43-1.43s-1.43.64-1.43,1.43Z"/><path d="M33.02,32.61c0-.79-.64-1.43-1.43-1.43h-5.17c-.79,0-1.43.64-1.43,1.43s.64,1.43,1.43,1.43h5.17c.79,0,1.43-.64,1.43-1.43Z"/><path d="M75,32.39c0-.79-.64-1.43-1.43-1.43h-5.17c-.79,0-1.43.64-1.43,1.43s.64,1.43,1.43,1.43h5.17c.79,0,1.43-.64,1.43-1.43Z"/><path d="M36.05,44.58l-3.65,3.65c-.56.56-.56,1.46,0,2.02.28.28.65.42,1.01.42s.73-.14,1.01-.42l3.65-3.65c.56-.56.56-1.46,0-2.02-.56-.56-1.46-.56-2.02,0Z"/><path d="M63.95,20.42l3.65-3.65c.56-.56.56-1.46,0-2.02-.56-.56-1.46-.56-2.02,0l-3.65,3.65c-.56.56-.56,1.46,0,2.02.28.28.65.42,1.01.42s.73-.14,1.01-.42Z"/><path d="M37.92,20.57c.56-.56.56-1.46,0-2.02l-3.65-3.65c-.56-.56-1.46-.56-2.02,0-.56.56-.56,1.46,0,2.02l3.65,3.66c.28.28.65.42,1.01.42s.73-.14,1.01-.42Z"/><path d="M64.1,44.43c-.56-.56-1.46-.56-2.02,0-.56.56-.56,1.46,0,2.02l3.65,3.65c.28.28.65.42,1.01.42s.73-.14,1.01-.42c.56-.56.56-1.46,0-2.02l-3.65-3.65Z"/><path d="M50,65c-17.92,0-32.5-14.58-32.5-32.5S32.08,0,50,0s32.5,14.58,32.5,32.5-14.58,32.5-32.5,32.5ZM50,5c-15.16,0-27.5,12.34-27.5,27.5s12.34,27.5,27.5,27.5,27.5-12.34,27.5-27.5-12.34-27.5-27.5-27.5Z"/></svg>