<?xml version="1.0" encoding="UTF-8"?><svg id="c" xmlns="http://www.w3.org/2000/svg" viewBox="0 0 100 65"><path d="M74.14,34.64c.66,0,1.19-.7,1.19-1.55s-.54-1.55-1.19-1.55h-6.22c-.66,0-1.19.7-1.19,1.55s.54,1.55,1.19,1.55h6.22Z"/><path d="M59.86,39.22c0,.86.54,1.55,1.19,1.55h9.43c.66,0,1.19-.7,1.19-1.55s-.54-1.55-1.19-1.55h-9.43c-.66,0-1.19.7-1.19,1.55Z"/><path d="M66.3,25.48c-7.18,6.56-14.36,13.12-21.52,19.71-.62.57-1.26.77-2.07.77-4.72-.02-9.43,0-14.15-.03-.89,0-1.22.22-1.21,1.17.03,2.83.09,2.52,2.53,2.52,2.38,0,4.75,0,7.12,0,2.68,0,5.35.03,8.03-.03.51-.01,1.11-.26,1.49-.6,7.68-7.01,15.32-14.05,22.98-21.08,1.09-1,1.1-1.28.04-2.33q-1.61-1.58-3.23-.1Z"/><path d="M59.68,13.27c-.46-.25-1.29-.75-1.74-1.03h-2.21c-.03,2.62-.47,5.1-2.43,6.93-.48.45-.99.83-1.52,1.15l-3.58,1.19c-.36.03-.72.05-1.09.05-2.56-.05-2.19-.06-3.02,2.13-.05.13-.23.6-.49,1.29l3.41,1.23c.14.05.25.15.31.29.06.13.07.28.02.42l-.32.89c-.08.22-.29.36-.52.36-.06,0-.13-.01-.19-.03l-3.44-1.25c-.23.6-.48,1.25-.73,1.92l3.47,1.26c.14.05.25.15.31.28.06.13.07.28.02.42l-.32.89c-.08.22-.29.36-.52.36-.06,0-.13-.01-.18-.03l-3.5-1.27c-.26.67-.5,1.32-.73,1.92l3.54,1.28c.29.1.43.42.33.71l-.32.89c-.08.22-.29.36-.52.36-.06,0-.13-.01-.19-.03l-3.57-1.29c-.24.64-.39,1.02-.39,1.02-.08,1.46-1.88,1.31-2.8,1.3-1.7-.03-2.41-.19-4.03.52,0,0-2.89,1.39-4.13,4.31-.26.61-.54,2.67.57,2.66,4.51-.03,8.65.02,13.16-.02.54,0,1.19-.26,1.58-.62,7.54-6.85,15.05-13.75,22.59-20.61.49-.44.5-.85.3-1.41-1.27-3.74-3.63-6.57-7.11-8.45Z"/><path d="M74.14,43.78h-19.23c-.66,0-1.19.7-1.19,1.55s.54,1.55,1.19,1.55h19.23c.66,0,1.19-.7,1.19-1.55s-.54-1.55-1.19-1.55Z"/><path d="M50,65c-17.92,0-32.5-14.58-32.5-32.5S32.08,0,50,0s32.5,14.58,32.5,32.5-14.58,32.5-32.5,32.5ZM50,5c-15.16,0-27.5,12.34-27.5,27.5s12.34,27.5,27.5,27.5,27.5-12.34,27.5-27.5-12.34-27.5-27.5-27.5Z"/></svg>