<?xml version="1.0" encoding="UTF-8"?><svg id="c" xmlns="http://www.w3.org/2000/svg" viewBox="0 0 100 65"><path d="M49.96,54.64c12.22,0,22.14-9.92,22.14-22.14s-9.92-22.14-22.14-22.14-22.14,9.92-22.14,22.14,9.92,22.14,22.14,22.14ZM57.84,49.68c1.05-1.55,1.99-3.47,2.67-5.64,1.24.31,2.36.68,3.47,1.12-1.67,1.86-3.78,3.41-6.14,4.53ZM58.96,34.11c-.06,2.17-.37,4.16-.74,5.95-2.11-.37-4.34-.62-6.57-.68v-5.27h7.32ZM51.64,30.89v-5.27c2.23-.06,4.47-.31,6.57-.68.37,1.8.68,3.78.74,5.95h-7.32ZM66.03,42.42c-1.49-.62-3.04-1.12-4.59-1.61.43-2.11.68-4.34.81-6.7h6.51c-.25,3.04-1.24,5.83-2.73,8.31ZM66.03,22.58c1.49,2.48,2.48,5.27,2.73,8.31h-6.51c-.12-2.36-.37-4.59-.81-6.7,1.55-.5,3.1-.99,4.59-1.61ZM63.98,19.85c-1.12.43-2.23.81-3.47,1.12-.68-2.17-1.61-4.09-2.67-5.64,2.36,1.12,4.47,2.67,6.14,4.53ZM57.34,21.71c-1.86.31-3.72.5-5.71.62v-8.37c2.17.93,4.34,3.66,5.71,7.75ZM51.64,42.67c1.98.12,3.85.31,5.71.62-1.36,4.09-3.54,6.82-5.71,7.75v-8.37ZM33.9,42.42c-1.49-2.48-2.48-5.27-2.73-8.31h6.51c.12,2.36.37,4.59.81,6.7-1.55.5-3.1.99-4.59,1.61ZM35.94,45.15c1.12-.43,2.23-.81,3.47-1.12.68,2.17,1.61,4.09,2.67,5.64-2.36-1.12-4.47-2.67-6.14-4.53ZM48.29,34.11v5.27c-2.23.06-4.47.31-6.57.68-.37-1.8-.68-3.78-.74-5.95h7.32ZM40.97,30.89c.06-2.17.37-4.16.74-5.95,2.11.37,4.34.62,6.57.68v5.27h-7.32ZM42.58,43.29c1.86-.31,3.72-.5,5.71-.62v8.37c-2.17-.93-4.34-3.66-5.71-7.75ZM48.29,13.95v8.37c-1.98-.12-3.85-.31-5.71-.62,1.36-4.09,3.54-6.82,5.71-7.75ZM42.09,15.32c-1.05,1.55-1.99,3.47-2.67,5.64-1.24-.31-2.36-.68-3.47-1.12,1.67-1.86,3.78-3.41,6.14-4.53ZM33.9,22.58c1.49.62,3.04,1.12,4.59,1.61-.43,2.11-.68,4.34-.81,6.7h-6.51c.25-3.04,1.24-5.83,2.73-8.31Z"/><path d="M27.27,15.42s0,0,0,0h0Z"/><path d="M27.27,15.42s-.02,0-.04,0c.02,0,.03,0,.04,0Z"/><path d="M50,65c-17.92,0-32.5-14.58-32.5-32.5S32.08,0,50,0s32.5,14.58,32.5,32.5-14.58,32.5-32.5,32.5ZM50,5c-15.16,0-27.5,12.34-27.5,27.5s12.34,27.5,27.5,27.5,27.5-12.34,27.5-27.5-12.34-27.5-27.5-27.5Z"/></svg>