<?xml version="1.0" encoding="UTF-8"?><svg id="c" xmlns="http://www.w3.org/2000/svg" viewBox="0 0 100 65"><polygon points="54.79 26.7 59.22 22.27 54.77 18.04 53.3 19.59 56.16 22.31 53.28 25.19 54.79 26.7"/><polygon points="43.14 22.31 46 19.59 44.53 18.04 40.08 22.27 44.51 26.7 46.02 25.19 43.14 22.31"/><polygon points="52.99 16.91 50.69 16.91 46.31 27.81 48.61 27.81 52.99 16.91"/><path d="M54.61,48.92c2.63-1.29,2.83-1.34,2.74-2.46-.07-.95,0-1.2-1.15-.58-3.16,1.72-9.6,3.92-12.89,4.94-.99.3-2.15,1.26.1,3.93,4.16,4.93,11.03,2.8,13.11-2.96.58-1.62.48-2.21-.81-1.54-.92.48-2.32,1.23-3.74,1.83-3.41,1.44-4.12,1.75-5.1.29,1.31-.58,2.7-1.31,4.21-1.94,1.7-.7,3.54-1.51,3.54-1.51Z"/><path d="M41.9,40.82c-.92.06-.57.19-.43,1.87.07.82,1.4.61,2.04.58,6.23-.27,7.16-.51,7.03.69-.9.29-2.79.96-5.07,1.51-4.13,1.01-4.21.88-4,2.22.13.85.1,1.27,1.12,1.1,1.58-.26,3.21-.9,4.72-1.41,4.76-1.61,6.56-2.39,9.97-4.24.16-.09.25-2.26.07-2.39-.26-.19-1.17-.35-1.31-.51,0,0-.12.02-.11-1.13h0c0-6.68,7.85-8.61,7.85-17.06s-6.33-14.55-14.13-14.55-14.13,5.82-14.13,14.55,7.85,10.62,7.85,17.06c0,1.58-.39,1.64-1.47,1.71ZM42.26,29.97c-1.92-2.29-3.57-4.27-3.57-7.84,0-6.58,4.61-11.36,10.97-11.36s10.97,4.78,10.97,11.36c0,3.36-1.61,5.3-3.48,7.55-1.45,1.74-3.05,3.67-3.67,6.28-.94.02-2.2.03-3.72.03-1.66,0-2.98-.01-3.93-.03-.62-2.46-2.16-4.31-3.56-5.98Z"/><path d="M50,65c-17.92,0-32.5-14.58-32.5-32.5S32.08,0,50,0s32.5,14.58,32.5,32.5-14.58,32.5-32.5,32.5ZM50,5c-15.16,0-27.5,12.34-27.5,27.5s12.34,27.5,27.5,27.5,27.5-12.34,27.5-27.5-12.34-27.5-27.5-27.5Z"/></svg>