<?xml version="1.0" encoding="UTF-8"?><svg id="c" xmlns="http://www.w3.org/2000/svg" viewBox="0 0 100 65"><path d="M60.86,28.42c0,1.12-.91,2.04-2.04,2.04h-1.45c-1.12,0-2.04-.91-2.04-2.04h-.04v-.08c-1.91-.21-3.7-.58-5.24-1.12v4.91c0,1.04.83,1.87,1.87,1.87h12.35c1.04,0,1.87-.83,1.87-1.87v-4.91c-1.58.54-3.37.91-5.28,1.12v.08Z"/><path d="M57.37,24.88h1.45c1.08,0,1.95.83,2.04,1.87,1.95-.21,3.74-.62,5.28-1.21v-1.75c0-1.04-.83-1.87-1.87-1.87h-2.41v-1.04c0-1.25-1.04-2.33-2.33-2.33h-2.83c-1.29,0-2.33,1.04-2.33,2.33v1.04h-2.41c-1.04,0-1.87.83-1.91,1.87v1.75c1.54.58,3.33,1,5.28,1.21.08-1.04.96-1.87,2.04-1.87ZM56.29,20.89c0-.25.21-.46.46-.46h2.83c.25,0,.46.21.46.46v1.04h-3.74v-1.04Z"/><path d="M57.37,26.46h1.46c.28,0,.5.22.5.5v1.46c0,.28-.22.5-.5.5h-1.46c-.28,0-.5-.22-.5-.5v-1.45c0-.28.22-.5.5-.5Z"/><path d="M31.94,50.85l1.77,1.84c.99,1.02,2.63,1.05,3.65.07l13.06-12.58c2.16,1.31,4.69,2.08,7.4,2.14,8.23.15,15.03-6.37,15.19-14.59.15-8.23-6.44-15.03-14.63-15.19-8.19-.15-15,6.4-15.15,14.59-.05,2.71.63,5.27,1.86,7.48l-13.07,12.59c-1.02.99-1.05,2.63-.07,3.65ZM58.31,15.84c6.39.12,11.51,5.43,11.38,11.82-.12,6.39-5.43,11.51-11.82,11.38-6.39-.12-11.51-5.43-11.39-11.82.12-6.39,5.43-11.51,11.82-11.38Z"/><path d="M50,65c-17.92,0-32.5-14.58-32.5-32.5S32.08,0,50,0s32.5,14.58,32.5,32.5-14.58,32.5-32.5,32.5ZM50,5c-15.16,0-27.5,12.34-27.5,27.5s12.34,27.5,27.5,27.5,27.5-12.34,27.5-27.5-12.34-27.5-27.5-27.5Z"/></svg>