<?xml version="1.0" encoding="UTF-8"?><svg id="b" xmlns="http://www.w3.org/2000/svg" viewBox="0 0 100 65"><g id="c"><path id="d" d="M69.28,40.45l-3.01-1.74,2.32-.62c.73-.2,1.17-.95.97-1.68l-.35-1.33c-.2-.73-.95-1.17-1.68-.97l-6.32,1.69-5.69-3.3,5.69-3.29,6.31,1.69c.73.19,1.49-.24,1.68-.97l.36-1.33c.19-.74-.25-1.49-.98-1.68l-2.32-.62,3.01-1.74c.66-.38.88-1.22.51-1.88l-1.38-2.39c-.38-.66-1.22-.88-1.88-.51l-3.01,1.73.62-2.32c.19-.73-.24-1.49-.97-1.68l-1.33-.35c-.73-.19-1.49.24-1.68.97l-1.69,6.31-5.6,3.23v-6.91l4.79-4.79c.55-.56.55-1.46,0-2.01l-1.01-1.01c-.56-.55-1.46-.55-2.01,0l-1.76,1.76v-3.6c0-.79-.64-1.42-1.43-1.43h-2.85c-.79,0-1.42.64-1.43,1.43v3.6l-1.76-1.76c-.56-.55-1.46-.55-2.01,0l-1.01,1.01c-.56.55-.56,1.44-.01,2,0,0,0,0,.01.01l4.78,4.79v6.91l-5.6-3.23-1.69-6.31c-.2-.73-.95-1.16-1.68-.97l-1.33.35c-.73.2-1.17.95-.97,1.68l.63,2.32-3.02-1.74c-.66-.38-1.5-.15-1.88.5,0,0,0,0,0,0l-1.38,2.38c-.38.66-.15,1.5.5,1.88,0,0,0,0,0,0l3.01,1.74-2.31.62c-.74.2-1.18.95-.98,1.69,0,0,0,0,0,0l.35,1.33c.2.73.95,1.17,1.68.97l6.31-1.69,5.7,3.29-5.69,3.29-6.31-1.69c-.74-.2-1.49.24-1.69.97l-.35,1.33c-.19.73.24,1.48.97,1.68l2.32.62-3.01,1.75c-.66.38-.88,1.22-.51,1.88l1.38,2.39c.38.66,1.22.88,1.88.51l3.01-1.74-.62,2.32c-.19.73.24,1.49.97,1.68l1.33.36c.73.19,1.49-.24,1.68-.97l1.69-6.31,5.6-3.23v6.91l-4.79,4.78c-.56.55-.56,1.44-.01,2,0,0,0,0,.01.01l1.01,1.01c.56.55,1.46.55,2.01,0l1.76-1.76v3.59c0,.79.64,1.42,1.43,1.42h2.85c.79,0,1.42-.64,1.43-1.43v-3.6l1.76,1.76c.56.55,1.46.55,2.01,0l1.01-1.01c.55-.56.55-1.46,0-2.01l-4.76-4.79v-6.91l5.6,3.23,1.69,6.31c.2.73.95,1.17,1.68.97l1.33-.36c.73-.2,1.17-.95.97-1.68l-.63-2.32,3.01,1.74c.66.38,1.5.15,1.88-.5,0,0,0,0,0,0l1.38-2.39c.38-.65.16-1.48-.48-1.86,0,0-.01,0-.02,0h0Z"/></g><path d="M50,65c-17.92,0-32.5-14.58-32.5-32.5S32.08,0,50,0s32.5,14.58,32.5,32.5-14.58,32.5-32.5,32.5ZM50,5c-15.16,0-27.5,12.34-27.5,27.5s12.34,27.5,27.5,27.5,27.5-12.34,27.5-27.5-12.34-27.5-27.5-27.5Z"/></svg>