<?xml version="1.0" encoding="UTF-8"?><svg id="c" xmlns="http://www.w3.org/2000/svg" viewBox="0 0 100 65"><path d="M37.87,34.77l.46,9.4c-3.01-8.57-9.87-8.86-9.87-8.86,0,0,1.8,3.98,2.6,7.87.8,3.9,7.1,5.26,7.1,5.26,0,0,1.13,6.67-3.33,10.75-.62.57-.19,1.62.66,1.62h9.43c.76,0,1.21-.85.78-1.48-1.49-2.17-4.01-6.3-4.01-9.4,0-4.4-.19-6.34-.19-6.34,0,0,5.95-1.5,6.75-5.4.8-3.9,2.6-7.87,2.6-7.87,0,0-7.69,2.28-9.59,8.17l.06-2.13-.02-1.64s3.3-3.71,4.27-5.02c1.48-1.99,1.43-4.6,0-6.62-1.92-2.71-4.38-5.63-1.75-12.27-6.09,3.68-7.83,8.78-9.58,12.26-1.09,2.16-1.32,4.55,0,6.62l3.63,5.09Z"/><path d="M49.98,42.86c-2.62,2.62-2.62,6.86,0,9.48,1.31,1.31,3.02,1.97,4.74,1.97,1.72,0,3.43-.65,4.74-1.96,2.62-2.62,2.62-6.86,0-9.48-.89-.9-1.98-1.48-3.13-1.76v-12.61s4.88-4.86,4.88-4.86l2.96,2.97v4.97c-1.16.28-2.27.86-3.17,1.77-2.62,2.62-2.62,6.86,0,9.48,1.31,1.31,3.02,1.97,4.74,1.97,1.72,0,3.43-.65,4.74-1.96,2.62-2.62,2.62-6.86,0-9.48-.88-.89-1.96-1.46-3.09-1.75v-6.33s-4.57-4.58-4.57-4.58v-11.77s2.87-3.17,2.87-3.17v-1.43s-2.86,0-2.86,0h0s-3.23,0-3.23,0h0s-2.86,0-2.86,0v1.43s2.85,3.16,2.85,3.16v11.77s-6.49,6.47-6.49,6.47v13.95c-1.16.28-2.24.86-3.14,1.76ZM65.75,34.6c.93,0,1.8.36,2.46,1.02.66.66,1.02,1.53,1.02,2.46,0,.93-.36,1.8-1.02,2.46-.66.66-1.53,1.02-2.46,1.02-.93,0-1.8-.36-2.46-1.02-.66-.66-1.02-1.53-1.02-2.46,0-.93.36-1.8,1.02-2.46.66-.66,1.53-1.02,2.46-1.02ZM52.26,45.14c.66-.66,1.53-1.02,2.46-1.02.93,0,1.8.36,2.46,1.02,1.35,1.36,1.35,3.56,0,4.91-.66.66-1.53,1.02-2.46,1.02-.93,0-1.8-.36-2.46-1.02-1.35-1.36-1.35-3.56,0-4.91Z"/><path d="M50,65c-17.92,0-32.5-14.58-32.5-32.5S32.08,0,50,0s32.5,14.58,32.5,32.5-14.58,32.5-32.5,32.5ZM50,5c-15.16,0-27.5,12.34-27.5,27.5s12.34,27.5,27.5,27.5,27.5-12.34,27.5-27.5-12.34-27.5-27.5-27.5Z"/></svg>