<?xml version="1.0" encoding="UTF-8"?><svg id="c" xmlns="http://www.w3.org/2000/svg" viewBox="0 0 100 65"><path d="M60.11,44.06l-7.73-7.8c-1.28-1.28-3.41-1.28-4.69,0l-7.8,7.8c-1.28,1.28-1.28,3.41,0,4.69l7.8,7.8c1.28,1.28,3.35,1.28,4.69,0l7.8-7.8c1.28-1.34,1.28-3.41-.06-4.69h0ZM50.02,41.48c.66,0,1.2.54,1.2,1.2s-.54,1.2-1.2,1.2-1.2-.54-1.2-1.2.54-1.2,1.2-1.2ZM50.02,51.32c-.66,0-1.2-.54-1.2-1.2s.54-1.2,1.2-1.2,1.2.54,1.2,1.2-.54,1.2-1.2,1.2ZM54.87,47.61h-9.69c-.67,0-1.21-.55-1.21-1.21s.55-1.21,1.21-1.21h9.69c.67,0,1.21.55,1.21,1.21s-.55,1.21-1.21,1.21ZM46.18,30.12l-7.8-7.73c-1.28-1.28-3.41-1.28-4.69,0l-7.73,7.73c-1.28,1.28-1.28,3.41,0,4.69l7.8,7.8c1.28,1.28,3.35,1.28,4.69,0l7.8-7.8c1.22-1.28,1.22-3.35-.06-4.69ZM40.92,33.71h-9.69c-.67,0-1.21-.55-1.21-1.21s.55-1.21,1.21-1.21h9.69c.67,0,1.21.55,1.21,1.21s-.55,1.21-1.21,1.21ZM74.04,30.12h0l-7.8-7.8c-1.28-1.28-3.35-1.28-4.69,0l-7.73,7.8c-1.28,1.28-1.28,3.35,0,4.69l7.8,7.8c1.28,1.28,3.35,1.28,4.69,0l7.8-7.8c1.22-1.28,1.22-3.41-.06-4.69ZM68.41,35.16c.49.49.49,1.3,0,1.79h0c-.49.49-1.3.49-1.79,0l-2.69-2.69-2.69,2.69c-.49.49-1.3.49-1.79,0-.49-.49-.49-1.3,0-1.79l2.69-2.69-2.69-2.69c-.49-.49-.49-1.3,0-1.79s1.3-.49,1.79,0l2.69,2.69,2.69-2.69c.49-.49,1.3-.49,1.79,0h0c.49.49.49,1.3,0,1.79l-2.69,2.69,2.69,2.69ZM47.62,28.74c1.28,1.28,3.35,1.28,4.69,0l7.8-7.86c1.28-1.28,1.28-3.35,0-4.63l-7.8-7.8c-1.28-1.28-3.35-1.28-4.69,0l-7.8,7.8c-1.28,1.28-1.28,3.35,0,4.69l7.8,7.8ZM45.12,17.39h3.64v-3.64c0-.67.55-1.21,1.21-1.21s1.21.55,1.21,1.21v3.64h3.64c.67,0,1.21.55,1.21,1.21s-.55,1.21-1.21,1.21h-3.64v3.64c0,.67-.55,1.21-1.21,1.21s-1.21-.55-1.21-1.21v-3.64h-3.64c-.67,0-1.21-.55-1.21-1.21s.55-1.21,1.21-1.21Z"/><path d="M50,65c-17.92,0-32.5-14.58-32.5-32.5S32.08,0,50,0s32.5,14.58,32.5,32.5-14.58,32.5-32.5,32.5ZM50,5c-15.16,0-27.5,12.34-27.5,27.5s12.34,27.5,27.5,27.5,27.5-12.34,27.5-27.5-12.34-27.5-27.5-27.5Z"/></svg>