<?xml version="1.0" encoding="UTF-8"?>
<svg id="a" xmlns="http://www.w3.org/2000/svg" viewBox="0 0 269.78 325.94">
  <defs>
    <style>
      .cls-1 {
        stroke-width: 0px;
      }
    </style>
  </defs>
  <path class="cls-1" d="m236.3,64.7h-21.86l-67.22,67.22c1.35,2.72,2.11,5.78,2.11,9.02,0,.68-.03,1.35-.1,2.01l.24-.24c-.24,3.12-1.31,5.98-2.91,8.46-3.52,6.03-10.07,10.09-17.56,10.09h-.12c-11.53,0-20.35-8.82-20.35-20.35,0-2.25.47-4.61,1.34-6.88,1.04-2.89,2.73-5.48,4.88-7.59,3.09-3.15,7.2-5.4,12.05-5.83l-.14.14c.76-.09,1.54-.14,2.33-.14,3.18,0,6.18.73,8.86,2.03l67.23-67.23v-21.91L238.58,0l6.85,24.35,24.35,6.85-33.5,33.5h.02Z"/>
  <path class="cls-1" d="m197.1,273.21l29.86,52.73c10.7-6.22,20.83-13.52,30.28-21.86l-29.58-51.88c-9.23,8.2-19.5,15.27-30.56,21h0Z"/>
  <path class="cls-1" d="m257.77,140.91c0-20.34-4.6-39.4-12.97-56.42l-.21.2h-21.86l-10.69,10.69,3.11,6.93c5.54,12.32,8.34,25.31,8.34,38.6,0,25.35-9.82,49.13-27.65,66.96s-41.61,27.65-66.96,27.65-49.13-9.82-66.96-27.65c-17.83-17.83-27.65-41.61-27.65-66.96s9.82-49.13,27.65-66.96,41.61-27.65,66.96-27.65c13.33,0,26.33,2.84,38.66,8.44l6.82,3.1,10.73-10.73v-21.91h0c-17.17-8.46-36.4-13.28-56.93-13.17C57.11,12.43,0,69.86,0,140.9s57.65,128.87,128.87,128.87h0c71.22,0,128.87-57.66,128.87-128.88l.03.02Z"/>
  <path class="cls-1" d="m169.94,137.49l-.52,6.76c-.47,6.09-2.47,12.09-5.8,17.37-7.26,12.12-20.47,19.63-34.61,19.63h-.26c-22.56-.07-40.21-17.77-40.21-40.35,0-4.65.88-9.32,2.61-13.88,2.02-5.5,5.29-10.59,9.47-14.73,6.62-6.69,15.3-10.81,24.45-11.61l7.09-.62,27.11-27.11c-9.31-4.23-19.48-6.65-30.38-6.65-41.38,0-74.61,33.24-74.61,74.61s33.24,74.61,74.61,74.61,74.61-33.24,74.61-74.61c0-10.96-2.45-21.19-6.59-30.4l-26.98,26.98h0Z"/>
  <path class="cls-1" d="m30.13,252.2l-27.67,48.52c9.26,8.61,19.23,16.19,29.78,22.7l28.43-50.21c-11.06-5.73-21.32-12.81-30.55-21.01h.01Z"/>
</svg>