<?xml version="1.0" encoding="UTF-8"?>
<svg id="b" xmlns="http://www.w3.org/2000/svg" viewBox="0 0 500 500.69">
  <defs>
    <style>
      .cls-1 {
        stroke-width: 0px;
      }

      .cls-2 {
        fill: none;
        stroke: #000;
        stroke-linecap: round;
        stroke-miterlimit: 10;
        stroke-width: 40px;
      }
    </style>
  </defs>
  <path class="cls-1" d="m380.07,283.01c0-13.85-11.07-24.92-24.92-24.92-8.7,0-16.61,4.75-20.96,11.86v-.79c0-13.85-11.07-24.92-24.92-24.92-8.7,0-16.61,4.75-20.96,11.46v-.79c0-13.85-11.07-24.92-24.92-24.92-8.7,0-16.61,4.75-20.96,11.46v-82.65c0-6.72-2.76-13.05-7.12-17.79-4.75-4.75-11.07-7.12-17.4-7.12-13.85,0-24.92,11.07-24.92,24.92v153.45c0,1.58-.79,2.77-1.98,3.16-1.18.39-2.77.39-3.55-.79l-25.31-24.92c-8.7-8.31-21.76-9.88-32.03-3.16-5.93,3.96-9.88,10.28-10.68,17.4-1.18,7.12,1.18,14.24,5.54,19.78l62.88,75.94c17.79,21.36,43.89,34.01,71.98,34.01h39.16c21.76,0,42.32-8.7,57.74-24.12,15.42-15.42,24.12-36,24.12-57.74l-.79-68.82h.01Z"/>
  <path class="cls-2" d="m142.38,158.83c0-41.5,33.65-75.15,75.15-75.15s75.15,33.65,75.15,75.15"/>
</svg>