<?xml version="1.0" encoding="UTF-8"?>
<svg id="b" xmlns="http://www.w3.org/2000/svg" viewBox="0 0 500 500">
  <defs>
    <style>
      .cls-1 {
        stroke-width: 0px;
      }
    </style>
  </defs>
  <path class="cls-1" d="m359.15,74.99h-202.23c-9.66,0-17.5,7.85-17.5,17.5v315c0,9.67,7.85,17.5,17.5,17.5h202.23c9.66,0,17.5-7.83,17.5-17.5V92.51c0-9.66-7.85-17.5-17.5-17.5h0Zm-120.02,280.6h-16.62v16.61h-22.59v-16.61h-16.61v-22.59h16.61v-16.61h22.59v16.61h16.61v22.59h.01Zm61.52,13.43c-6.03,6.05-15.83,6.05-21.88,0s-6.05-15.84,0-21.88c6.05-6.05,15.83-6.05,21.88,0s6.05,15.83,0,21.88Zm27.58-27.58c-6.03,6.05-15.83,6.05-21.88,0s-6.05-15.84,0-21.88c6.05-6.05,15.83-6.05,21.88,0,6.05,6.05,6.05,15.84,0,21.88Zm3.04-77h-146.46V118.89h146.46v145.55Z"/>
</svg>