<?xml version="1.0" encoding="UTF-8"?>
<svg id="a" xmlns="http://www.w3.org/2000/svg" viewBox="0 0 500 500">
  <defs>
    <style>
      .cls-1 {
        stroke-width: 0px;
      }
    </style>
  </defs>
  <path class="cls-1" d="m273.4,75.27h145.34c3.3,0,5.98,2.68,5.98,5.98v144.54c0,5.33-6.43,8.02-10.23,4.27l-41.92-41.18c-3.43-3.43-8.6-3.43-12.03,0l-56.31,56.31c-2.6,2.6-6.85,2.6-9.45,0l-39.98-39.98c-2.6-2.6-2.6-6.85,0-9.45l56.31-56.31c3.32-3.32,3.32-8.7,0-12.03l-41.93-41.93c-3.76-3.76-1.09-10.21,4.23-10.21h-.01Z"/>
  <path class="cls-1" d="m424.98,419.01c0,3.3-2.68,5.98-5.98,5.98H80.99c-3.3,0-5.98-2.68-5.98-5.98V80.99c0-3.3,2.68-5.98,5.98-5.98h105.21c1.59,0,3.11.63,4.23,1.75l53.04,53.02c1.92,1.92.56,5.21-2.15,5.21h-100.32c-3.3,0-5.98,2.68-5.98,5.98v218.03c0,3.3,2.68,5.98,5.98,5.98h218.04c3.3,0,5.98-2.68,5.98-5.98v-113.71c0-2.72,3.28-4.07,5.21-2.16l53.04,66.37c1.12,1.12,1.75,2.64,1.75,4.23v105.25l-.03.03Z"/>
</svg>