<?xml version="1.0" encoding="UTF-8"?>
<svg id="b" xmlns="http://www.w3.org/2000/svg" viewBox="0 0 500 500">
  <defs>
    <style>
      .cls-1 {
        stroke: #000;
        stroke-miterlimit: 10;
        stroke-width: 23px;
      }
    </style>
  </defs>
  <path class="cls-1" d="m347.79,354.97c1.63-.55,3.25-1.63,4.6-2.71,1.35-1.35,2.16-2.71,2.71-4.34,0-.28.28-.55.28-.81l69.08-257.34c1.09-4.06,0-8.4-2.97-11.38s-7.31-4.06-11.38-2.97l-257.34,69.08c-.28,0-.55.28-.81.28-1.63.55-3.25,1.63-4.34,2.71-1.35,1.35-2.16,2.71-2.71,4.6,0,.28-69.35,258.15-69.35,258.15-1.09,4.06,0,8.4,2.97,11.38s7.31,4.06,11.38,2.97c0,0,257.62-69.61,257.89-69.61h0Zm47.67-251.12l-58.24,217.8-159.56-159.56,217.8-58.24Z"/>
</svg>