<?xml version="1.0" encoding="UTF-8"?>
<svg id="Layer_1" data-name="Layer 1" xmlns="http://www.w3.org/2000/svg" viewBox="0 0 500 500">
  <defs>
    <style>
      .cls-1 {
        stroke-width: 0px;
      }

      .cls-2 {
        stroke: #000;
        stroke-miterlimit: 10;
        stroke-width: 10px;
      }
    </style>
  </defs>
  <g id="a">
    <path class="cls-1" d="m296.5,275.29l67.56,67.19c10.84,11.9,0,22.24,0,22.24-5.16,5.69-16,5.69-21.16,0l-68.07-67.7c8.41-5.94,15.74-13.29,21.67-21.72h0Z"/>
    <path class="cls-1" d="m392.78,425c-8.85,0-17.02-3.37-22.49-9.24l-67.23-66.62c-2.44-2.41-2.1-6.45.7-8.42l5.08-3.59c10.74-7.6,20.12-16.99,27.7-27.75l3.55-5.04c1.97-2.78,5.95-3.15,8.37-.75l66.84,66.21.19.2c16.14,17.71,8.77,36.97-.24,45.81-5.47,5.85-13.62,9.19-22.44,9.19h-.01Z"/>
    <path class="cls-2" d="m75,208.98c0-73.87,59.99-133.98,133.72-133.98s133.72,60.1,133.72,133.98-59.99,133.98-133.72,133.98-133.72-60.1-133.72-133.98h0Zm29.07,0c0,57.82,46.94,104.85,104.65,104.85s104.65-47.03,104.65-104.85-46.94-104.85-104.65-104.85-104.65,47.03-104.65,104.85h0Z"/>
  </g>
  <g id="b">
    <path class="cls-1" d="m156.27,218.99h24c1.85,0,3.7-1.85,3.7-3.7v-70.07c0-3.7,3.33-6.68,7.04-6.68h35.99c3.33,0,6.66,3.33,6.66,6.68v70.07c0,1.85,1.85,3.7,3.7,3.7h24c1.85,0,2.22,2.6,1.48,3.7l-46.24,53.74c-1.85,1.85-4.81,2.97-8.14,2.97s-6.29-1.11-8.14-3.33l-45.5-53.38c-1.1-1.11-.37-3.7,1.48-3.7h-.01Z"/>
  </g>
</svg>