<?xml version="1.0" encoding="UTF-8"?>
<svg id="b" xmlns="http://www.w3.org/2000/svg" viewBox="0 0 260 321.21">
  <defs>
    <style>
      .cls-1 {
        stroke-width: 0px;
      }
    </style>
  </defs>
  <path class="cls-1" d="m214.64,129.57h-38.72c-2.99,0-5.97-2.99-5.97-5.97V10.75c0-5.97-5.37-10.75-11.34-10.75h-58.08c-5.37,0-10.75,5.37-10.75,10.75v112.85c0,2.99-2.99,5.97-5.97,5.97h-38.73c-2.99,0-3.58,4.18-2.39,5.97l74.64,86.58c2.99,2.99,7.76,4.78,13.14,4.78s10.15-1.79,13.14-5.37l73.44-85.98c1.79-1.79.6-5.97-2.39-5.97h-.02Z"/>
  <path class="cls-1" d="m254,241.49h-33c-3.31,0-6,2.69-6,6v22.72c0,3.31-2.69,6-6,6h-85.32s0,0,0,0H51c-3.31,0-6-2.69-6-6v-22.72c0-3.31-2.69-6-6-6H6c-3.31,0-6,2.69-6,6v67.72c0,3.31,2.69,6,6,6h157.66s90.34,0,90.34,0c3.31,0,6-2.69,6-6v-67.72c0-3.31-2.69-6-6-6Z"/>
</svg>