<?xml version="1.0" encoding="UTF-8"?>
<svg id="b" xmlns="http://www.w3.org/2000/svg" viewBox="0 0 500 500">
  <defs>
    <style>
      .cls-1 {
        stroke: #000;
        stroke-miterlimit: 10;
        stroke-width: 23px;
      }
    </style>
  </defs>
  <path class="cls-1" d="m401.65,91.13H106.62c-15.16,0-27.49,12.33-27.49,27.49v265.42c0,15.16,12.33,27.49,27.49,27.49h295.03c15.16,0,27.49-12.33,27.49-27.49V118.62c0-15.16-12.33-27.49-27.49-27.49Zm-301.36,27.49c0-3.5,2.85-6.34,6.34-6.34h295.03c3.5,0,6.34,2.85,6.34,6.34v54.99H100.28v-54.99Zm70.33,271.76h-63.97c-3.5,0-6.34-2.85-6.34-6.34v-189.29h70.31v195.63h0Zm237.39-6.35c0,3.5-2.85,6.34-6.34,6.34h-209.9v-195.63h216.24v189.27h0Z"/>
</svg>