<?xml version="1.0" encoding="UTF-8"?>
<svg id="b" xmlns="http://www.w3.org/2000/svg" viewBox="0 0 500 500.69">
  <defs>
    <style>
      .cls-1 {
        stroke-width: 0px;
      }
    </style>
  </defs>
  <path class="cls-1" d="m414.56,112.16c-7.73-7.73-18.22-12.08-29.15-12.09h-61.87c-10.93.01-21.42,4.36-29.15,12.09-7.73,7.73-12.08,18.22-12.09,29.15v61.87c.01,10.93,4.36,21.42,12.09,29.15,7.73,7.73,18.22,12.08,29.15,12.09h61.87c10.93,0,21.42-4.36,29.15-12.09,7.73-7.73,12.08-18.22,12.09-29.15v-61.87c0-10.93-4.36-21.42-12.09-29.15Zm-32.83,87.32h-54.48v-54.48h54.48v54.48Z"/>
  <path class="cls-1" d="m414.56,281.51c-7.73-7.73-18.22-12.08-29.15-12.09h-61.87c-10.93,0-21.42,4.36-29.15,12.09-7.73,7.73-12.08,18.22-12.09,29.15v61.87c.01,10.93,4.36,21.42,12.09,29.15,7.73,7.73,18.21,12.08,29.15,12.09h61.87c10.93-.01,21.41-4.36,29.15-12.09,7.73-7.73,12.08-18.21,12.09-29.15v-61.87c0-10.93-4.36-21.42-12.09-29.15Zm-32.83,87.32h-54.48v-54.48h54.48v54.48Z"/>
  <path class="cls-1" d="m245.55,93.69c-7.53-7.53-17.74-11.76-28.38-11.78h-100.37c-10.64,0-20.85,4.25-28.37,11.78-7.53,7.53-11.76,17.73-11.78,28.37v100.37c0,10.64,4.25,20.85,11.78,28.38,7.53,7.53,17.73,11.76,28.37,11.78h100.37c10.64-.01,20.85-4.25,28.38-11.78,7.53-7.53,11.76-17.74,11.78-28.38v-100.37c-.01-10.64-4.25-20.85-11.78-28.37h0Zm-33.16,123.96h-90.8v-90.8h90.8v90.8h0Z"/>
  <path class="cls-1" d="m245.22,299.67c-7.73-7.73-18.21-12.08-29.15-12.09h-61.85c-10.93.01-21.41,4.36-29.15,12.09-7.73,7.73-12.08,18.21-12.09,29.15v61.85c.01,10.93,4.36,21.41,12.09,29.15,7.73,7.73,18.22,12.08,29.15,12.09h61.85c10.93-.01,21.41-4.36,29.15-12.09,7.73-7.73,12.08-18.22,12.09-29.15v-61.85c-.01-10.93-4.36-21.42-12.09-29.15h0Zm-32.83,87.31h-54.48v-54.48h54.48v54.48Z"/>
</svg>