<?xml version="1.0" encoding="UTF-8"?>
<svg id="b" xmlns="http://www.w3.org/2000/svg" viewBox="0 0 500 500">
  <defs>
    <style>
      .cls-1 {
        stroke-width: 16px;
      }

      .cls-1, .cls-2 {
        fill-rule: evenodd;
        stroke: #000;
        stroke-miterlimit: 10;
      }

      .cls-2 {
        stroke-width: 20px;
      }
    </style>
  </defs>
  <path class="cls-1" d="m232.36,78.05c10.94-14.42,32.61-14.42,43.55,0l15.18,20.03c.72.94,1.89,1.42,3.05,1.27l24.9-3.42c17.92-2.46,33.26,12.86,30.79,30.79l-3.42,24.9c-.16,1.17.32,2.34,1.27,3.05l20.03,15.18c14.42,10.94,14.42,32.61,0,43.55l-20.03,15.18c-.94.72-1.42,1.89-1.27,3.06l3.42,24.9c2.46,17.92-12.86,33.26-30.79,30.8l-24.9-3.42c-1.18-.16-2.34.32-3.05,1.27l-15.18,20.03c-10.94,14.42-32.61,14.42-43.55,0l-15.18-20.03c-.71-.94-1.89-1.42-3.05-1.27l-24.9,3.42c-17.92,2.46-33.26-12.86-30.8-30.8l3.42-24.9c.16-1.17-.32-2.34-1.27-3.06l-20.03-15.18c-14.42-10.94-14.42-32.61,0-43.55l20.03-15.18c.94-.71,1.42-1.89,1.27-3.05l-3.42-24.9c-2.46-17.93,12.86-33.26,30.79-30.8l24.9,3.42c1.17.16,2.34-.32,3.05-1.27l15.18-20.03h.01Zm24.39,14.53c-1.31-1.73-3.91-1.73-5.22,0l-15.19,20.03c-5.97,7.86-15.71,11.9-25.49,10.56l-24.9-3.42c-2.15-.3-3.99,1.55-3.69,3.69l3.42,24.9c1.34,9.78-2.69,19.53-10.56,25.5l-20.03,15.18c-1.73,1.31-1.73,3.91,0,5.23l20.03,15.18c7.86,5.97,11.9,15.71,10.56,25.49l-3.42,24.9c-.3,2.15,1.55,3.99,3.69,3.69l24.9-3.42c9.78-1.34,19.53,2.69,25.49,10.56l15.19,20.03c1.31,1.73,3.91,1.73,5.22,0l15.19-20.03c5.97-7.86,15.71-11.9,25.49-10.56l24.9,3.42c2.15.3,3.99-1.55,3.69-3.69l-3.42-24.9c-1.34-9.78,2.69-19.53,10.56-25.49l20.03-15.18c1.73-1.31,1.73-3.91,0-5.23l-20.03-15.18c-7.86-5.97-11.9-15.72-10.56-25.5l3.42-24.9c.3-2.15-1.55-3.99-3.69-3.69l-24.9,3.42c-9.78,1.34-19.53-2.69-25.49-10.56l-15.19-20.03h0Z"/>
  <path class="cls-2" d="m206.04,392.87v-107.8h-20.37v122.57c0,3.26,1.74,6.28,4.64,8.05,2.89,1.77,6.53,2.04,9.68.72l54.15-22.71,54.15,22.71c3.15,1.32,6.79,1.05,9.69-.72,2.89-1.77,4.63-4.8,4.63-8.05v-122.57h-20.36v107.8l-43.98-18.43c-2.63-1.1-5.64-1.1-8.27,0l-43.97,18.43h0Z"/>
</svg>